<?xml version="1.0" encoding="utf-8"?>
<!-- Generator: Adobe Illustrator 24.1.1, SVG Export Plug-In . SVG Version: 6.00 Build 0)  -->
<svg version="1.1" id="Layer_1" xmlns="http://www.w3.org/2000/svg" xmlns:xlink="http://www.w3.org/1999/xlink" x="0px" y="0px" viewBox="0 0 512 512" style="enable-background:new 0 0 512 512;" xml:space="preserve">
  <style type="text/css">
	.st0{fill:#FBBC05;}
	.st1{fill:#EA4335;}
	.st2{fill:#4285F4;}
	.st3{fill:#E0E0E0;}
	.st4{fill:#FFFFFF;}
	.st5{fill:#689DF6;}
	.st6{fill:#3A71DC;}
	.st7{fill:#D1D3E5;}
	.st8{fill:#5885DE;}
	.st9{fill:#FCC937;}
	.st10{fill:#E6E6E6;}
	.st11{fill:#F2D7CE;}
	.st12{fill:#EFA106;}
	.st13{fill:#E1402D;}
	.st14{fill:#F0AC2E;}
	.st15{fill:#C83D31;}
	.st16{fill:#C03B2B;}
	.st17{fill:#EE695D;}
	.st18{fill:#618DE3;}
	.st19{fill:#DADCEA;}
	.st20{fill:#799DE5;}
	.st21{fill:#D3645A;}
	.st22{fill:#CD6255;}
</style>
  <g>
    <path class="st0" d="M334.6,392.5l-52.4,91H145.1c-12.2,0-23.5-6.6-29.6-17.2L4.5,273c-6-10.5-6-23.4,0-34l42.2-73.6L98.8,256
		l78.5,136.5H334.6" />
    <path class="st1" d="M507.5,273L396.5,466.4c-6.1,10.6-17.4,17.2-29.6,17.2h-84.7l52.4-91L413.1,256l-78.6-136.5h104.3L507.4,239
		C513.5,249.5,513.5,262.5,507.5,273" />
    <path class="st2" d="M438.9,119.5H177.4L98.8,256l-52.1-90.6l68.7-119.8c6.1-10.6,17.4-17.2,29.6-17.2H367
		c12.2,0,23.5,6.6,29.6,17.2L438.9,119.5" />
    <polyline class="st3" points="334.6,119.5 413.1,256 334.5,392.5 177.4,392.5 98.8,256 177.4,119.5 334.6,119.5 	" />
    <path class="st4" d="M256,187.7c37.7,0,68.3,30.6,68.3,68.3s-30.6,68.3-68.3,68.3c-37.7,0-68.3-30.6-68.3-68.3
		S218.3,187.7,256,187.7z" />
    <path class="st4" d="M367,28.4C367,28.4,367,28.4,367,28.4H145.1l0,0l0,0H367c12.2,0,23.5,6.6,29.6,17.2l40.7,71h0l1.6,2.8h0l0,0h0
		l-42.4-73.9C390.5,35,379.2,28.4,367,28.4" />
    <path class="st5" d="M367,28.4H145.1l0,0c-12.2,0-23.5,6.6-29.6,17.2l0,0L46.7,165.4l0.8,1.4l67.9-118.4
		c6.1-10.6,17.4-17.2,29.6-17.2c0,0,0,0,0,0H367c12.2,0,23.5,6.6,29.6,17.2l39.1,68.2h1.6l-40.7-71C390.5,35,379.2,28.4,367,28.4" />
    <polyline class="st6" points="435.7,116.6 177.4,116.6 98.8,253.1 98.8,256 177.4,119.5 334.6,119.5 334.6,119.5 334.6,119.4 
		437.3,119.4 435.7,116.6 	" />
    <polyline class="st7" points="437.3,116.6 437.3,116.6 438.9,119.4 438.9,119.4 437.3,116.6 	" />
    <polyline class="st8" points="437.3,116.6 435.7,116.6 437.3,119.4 438.9,119.4 437.3,116.6 	" />
    <path class="st4" d="M46.7,165.4L4.5,239c-0.5,0.9-1,1.9-1.4,2.8c0.4-1,0.9-1.9,1.4-2.8L46.7,165.4L98.8,256l78.5,136.5h157.2l0,0
		h0l0,0H177.4l0,0h0L98.8,256l-51.3-89.1l0,0L46.7,165.4" />
    <path class="st9" d="M46.7,165.5L4.5,239c-0.5,0.9-1,1.9-1.4,2.8c-1.9,4.1-2.9,8.5-3,13.1c0-0.1,0-0.2,0-0.3c0,0.5,0,1,0.1,1.4
		c0.4-5,1.9-9.8,4.4-14.1l42.2-73.6l52.1,90.6l78.5,136.5h155.5l1.6-2.8H177.4L98.8,256L46.7,165.5" />
    <polyline class="st10" points="334.6,392.5 177.4,392.5 177.4,392.5 334.5,392.5 334.6,392.5 	" />
    <polyline class="st4" points="46.7,165.4 47.5,166.8 47.5,166.8 46.7,165.4 	" />
    <path class="st11" d="M4.5,273l110.9,193.4c6.1,10.6,17.4,17.2,29.6,17.2c0,0,0,0,0,0h137.1l0,0H145.1c-12.2,0-23.5-6.6-29.6-17.2
		L4.5,273 M3.7,271.5c0.3,0.5,0.5,1,0.8,1.5C4.2,272.5,4,272,3.7,271.5 M3.7,271.4C3.7,271.4,3.7,271.5,3.7,271.4
		C3.7,271.5,3.7,271.4,3.7,271.4 M3.7,271.4C3.7,271.4,3.7,271.4,3.7,271.4C3.7,271.4,3.7,271.4,3.7,271.4" />
    <path class="st12" d="M0.1,254.9c-0.2,5.7,1,11.4,3.6,16.5c0,0,0,0,0,0c0,0,0,0,0,0c0,0,0,0,0,0c0,0,0,0,0,0c0.3,0.5,0.5,1,0.8,1.5
		l0,0l110.9,193.4c6.1,10.6,17.4,17.2,29.6,17.2h137.1l1.6-2.9H145.1c-12.2,0-23.5-6.5-29.6-17.2L4.5,270.1c-2.5-4.3-4-9.2-4.4-14.1
		c0,0.5-0.1,1-0.1,1.4C0,256.6,0,255.7,0.1,254.9" />
    <polyline class="st13" points="283.8,480.7 283.8,480.7 282.2,483.5 282.2,483.6 282.2,483.6 282.2,483.6 283.2,481.8 283.8,480.7 
			" />
    <path class="st14" d="M0.1,254.6c0,0.1,0,0.2,0,0.3c0,0.8,0,1.7,0,2.5c0-0.5,0-1,0.1-1.4C0.1,255.5,0.1,255,0.1,254.6" />
    <polyline class="st15" points="334.6,119.5 334.6,119.5 413.1,256 414.7,256 337.8,122.3 336.2,122.3 334.6,119.5 	" />
    <path class="st15" d="M283.5,481.3l-0.3,0.5l-0.2,0.3L283.5,481.3 M511.8,256c-0.4,5-1.9,9.8-4.4,14.1L396.5,463.6
		c-6.1,10.6-17.4,17.2-29.6,17.2c0,0,0,0,0,0h-81.5l-1.6,2.8h-1.6l0,0h84.7c12.2,0,23.5-6.6,29.6-17.2L507.5,273
		c2.9-5,4.4-10.7,4.5-16.5c0,0.3,0,0.6,0,0.9C511.9,256.9,511.9,256.5,511.8,256" />
    <polyline class="st16" points="283.2,481.8 282.2,483.6 282.2,483.6 282.2,483.5 282.2,483.5 283,482.1 283.2,481.8 	" />
    <path class="st4" d="M438.9,119.5L438.9,119.5H336.2H438.9L507.4,239c1.4,2.4,2.4,4.9,3.2,7.4c-0.7-2.6-1.8-5.1-3.2-7.5
		L438.9,119.5" />
    <path class="st17" d="M414.7,256h-1.6l-78.6,136.5l-51,88.7l0.3-0.5h1.6l49.1-85.4L414.7,256 M438.9,119.5H336.2l1.6,2.8h101.1
		l68.6,119.6c2.5,4.3,4,9.2,4.4,14.1c0-0.5,0.1-1,0.1-1.4c0,0.6,0,1.3,0,1.9c0.1-3.4-0.4-6.8-1.3-10c-0.8-2.6-1.8-5.1-3.2-7.4
		L438.9,119.5" />
    <polyline class="st4" points="438.9,119.4 438.9,119.4 438.9,119.5 438.9,119.5 438.9,119.4 	" />
    <polyline class="st18" points="437.3,119.4 334.6,119.4 334.6,119.5 336.2,119.5 437.3,119.5 437.3,119.4 	" />
    <polyline class="st19" points="438.9,119.4 438.9,119.4 438.9,119.5 438.9,119.4 	" />
    <polyline class="st20" points="438.9,119.4 437.3,119.4 437.3,119.5 438.9,119.5 438.9,119.4 	" />
    <path class="st21" d="M414.7,256h-1.6H414.7 M336.2,119.5h-1.6l1.6,2.8h1.6L336.2,119.5" />
    <path class="st21" d="M285.5,480.7h-1.6l-0.3,0.5l-0.5,0.9l-0.8,1.4h1.6L285.5,480.7 M511.9,254.6c0,0.5,0,1-0.1,1.4
		c0,0.5,0.1,1,0.1,1.4c0-0.3,0-0.6,0-0.9C512,255.8,511.9,255.2,511.9,254.6" />
    <polyline class="st22" points="283,482.1 282.2,483.5 282.2,483.5 283,482.1 	" />
  </g>
</svg>